<?xml version="1.0" encoding="utf-8" standalone="no"?>
<!DOCTYPE svg PUBLIC "-//W3C//DTD SVG 1.1//EN"
  "http://www.w3.org/Graphics/SVG/1.1/DTD/svg11.dtd">
<svg xmlns:xlink="http://www.w3.org/1999/xlink" width="460.8pt" height="345.6pt" viewBox="0 0 460.8 345.6" xmlns="http://www.w3.org/2000/svg" version="1.1">
 <metadata>
  <rdf:RDF xmlns:dc="http://purl.org/dc/elements/1.1/" xmlns:cc="http://creativecommons.org/ns#" xmlns:rdf="http://www.w3.org/1999/02/22-rdf-syntax-ns#">
   <cc:Work>
    <dc:type rdf:resource="http://purl.org/dc/dcmitype/StillImage"/>
    <dc:date>2024-05-09T16:27:44.712935</dc:date>
    <dc:format>image/svg+xml</dc:format>
    <dc:creator>
     <cc:Agent>
      <dc:title>Matplotlib v3.6.2, https://matplotlib.org/</dc:title>
     </cc:Agent>
    </dc:creator>
   </cc:Work>
  </rdf:RDF>
 </metadata>
 <defs>
  <style type="text/css">*{stroke-linejoin: round; stroke-linecap: butt}</style>
 </defs>
 <g id="figure_1">
  <g id="patch_1">
   <path d="M 0 345.6 
L 460.8 345.6 
L 460.8 0 
L 0 0 
z
" style="fill: #ffffff"/>
  </g>
  <g id="axes_1">
   <g id="patch_2">
    <path d="M 57.6 307.584 
L 414.72 307.584 
L 414.72 41.472 
L 57.6 41.472 
z
" style="fill: #ffffff"/>
   </g>
   <g id="matplotlib.axis_1">
    <g id="xtick_1">
     <g id="line2d_1">
      <path d="M 100.887273 307.584 
L 100.887273 41.472 
" clip-path="url(#pd8f3478859)" style="fill: none; stroke: #b0b0b0; stroke-width: 0.8; stroke-linecap: square"/>
     </g>
     <g id="line2d_2">
      <defs>
       <path id="m97442cf6ae" d="M 0 0 
L 0 3.5 
" style="stroke: #000000; stroke-width: 0.8"/>
      </defs>
      <g>
       <use xlink:href="#m97442cf6ae" x="100.887273" y="307.584" style="stroke: #000000; stroke-width: 0.8"/>
      </g>
     </g>
     <g id="text_1">
      <!-- −7.5 -->
      <g transform="translate(88.745866 322.182437) scale(0.1 -0.1)">
       <defs>
        <path id="DejaVuSans-2212" d="M 678 2272 
L 4684 2272 
L 4684 1741 
L 678 1741 
L 678 2272 
z
" transform="scale(0.015625)"/>
        <path id="DejaVuSans-37" d="M 525 4666 
L 3525 4666 
L 3525 4397 
L 1831 0 
L 1172 0 
L 2766 4134 
L 525 4134 
L 525 4666 
z
" transform="scale(0.015625)"/>
        <path id="DejaVuSans-2e" d="M 684 794 
L 1344 794 
L 1344 0 
L 684 0 
L 684 794 
z
" transform="scale(0.015625)"/>
        <path id="DejaVuSans-35" d="M 691 4666 
L 3169 4666 
L 3169 4134 
L 1269 4134 
L 1269 2991 
Q 1406 3038 1543 3061 
Q 1681 3084 1819 3084 
Q 2600 3084 3056 2656 
Q 3513 2228 3513 1497 
Q 3513 744 3044 326 
Q 2575 -91 1722 -91 
Q 1428 -91 1123 -41 
Q 819 9 494 109 
L 494 744 
Q 775 591 1075 516 
Q 1375 441 1709 441 
Q 2250 441 2565 725 
Q 2881 1009 2881 1497 
Q 2881 1984 2565 2268 
Q 2250 2553 1709 2553 
Q 1456 2553 1204 2497 
Q 953 2441 691 2322 
L 691 4666 
z
" transform="scale(0.015625)"/>
       </defs>
       <use xlink:href="#DejaVuSans-2212"/>
       <use xlink:href="#DejaVuSans-37" x="83.789062"/>
       <use xlink:href="#DejaVuSans-2e" x="147.412109"/>
       <use xlink:href="#DejaVuSans-35" x="179.199219"/>
      </g>
     </g>
    </g>
    <g id="xtick_2">
     <g id="line2d_3">
      <path d="M 145.978182 307.584 
L 145.978182 41.472 
" clip-path="url(#pd8f3478859)" style="fill: none; stroke: #b0b0b0; stroke-width: 0.8; stroke-linecap: square"/>
     </g>
     <g id="line2d_4">
      <g>
       <use xlink:href="#m97442cf6ae" x="145.978182" y="307.584" style="stroke: #000000; stroke-width: 0.8"/>
      </g>
     </g>
     <g id="text_2">
      <!-- −5.0 -->
      <g transform="translate(133.836776 322.182437) scale(0.1 -0.1)">
       <defs>
        <path id="DejaVuSans-30" d="M 2034 4250 
Q 1547 4250 1301 3770 
Q 1056 3291 1056 2328 
Q 1056 1369 1301 889 
Q 1547 409 2034 409 
Q 2525 409 2770 889 
Q 3016 1369 3016 2328 
Q 3016 3291 2770 3770 
Q 2525 4250 2034 4250 
z
M 2034 4750 
Q 2819 4750 3233 4129 
Q 3647 3509 3647 2328 
Q 3647 1150 3233 529 
Q 2819 -91 2034 -91 
Q 1250 -91 836 529 
Q 422 1150 422 2328 
Q 422 3509 836 4129 
Q 1250 4750 2034 4750 
z
" transform="scale(0.015625)"/>
       </defs>
       <use xlink:href="#DejaVuSans-2212"/>
       <use xlink:href="#DejaVuSans-35" x="83.789062"/>
       <use xlink:href="#DejaVuSans-2e" x="147.412109"/>
       <use xlink:href="#DejaVuSans-30" x="179.199219"/>
      </g>
     </g>
    </g>
    <g id="xtick_3">
     <g id="line2d_5">
      <path d="M 191.069091 307.584 
L 191.069091 41.472 
" clip-path="url(#pd8f3478859)" style="fill: none; stroke: #b0b0b0; stroke-width: 0.8; stroke-linecap: square"/>
     </g>
     <g id="line2d_6">
      <g>
       <use xlink:href="#m97442cf6ae" x="191.069091" y="307.584" style="stroke: #000000; stroke-width: 0.8"/>
      </g>
     </g>
     <g id="text_3">
      <!-- −2.5 -->
      <g transform="translate(178.927685 322.182437) scale(0.1 -0.1)">
       <defs>
        <path id="DejaVuSans-32" d="M 1228 531 
L 3431 531 
L 3431 0 
L 469 0 
L 469 531 
Q 828 903 1448 1529 
Q 2069 2156 2228 2338 
Q 2531 2678 2651 2914 
Q 2772 3150 2772 3378 
Q 2772 3750 2511 3984 
Q 2250 4219 1831 4219 
Q 1534 4219 1204 4116 
Q 875 4013 500 3803 
L 500 4441 
Q 881 4594 1212 4672 
Q 1544 4750 1819 4750 
Q 2544 4750 2975 4387 
Q 3406 4025 3406 3419 
Q 3406 3131 3298 2873 
Q 3191 2616 2906 2266 
Q 2828 2175 2409 1742 
Q 1991 1309 1228 531 
z
" transform="scale(0.015625)"/>
       </defs>
       <use xlink:href="#DejaVuSans-2212"/>
       <use xlink:href="#DejaVuSans-32" x="83.789062"/>
       <use xlink:href="#DejaVuSans-2e" x="147.412109"/>
       <use xlink:href="#DejaVuSans-35" x="179.199219"/>
      </g>
     </g>
    </g>
    <g id="xtick_4">
     <g id="line2d_7">
      <path d="M 236.16 307.584 
L 236.16 41.472 
" clip-path="url(#pd8f3478859)" style="fill: none; stroke: #b0b0b0; stroke-width: 0.8; stroke-linecap: square"/>
     </g>
     <g id="line2d_8">
      <g>
       <use xlink:href="#m97442cf6ae" x="236.16" y="307.584" style="stroke: #000000; stroke-width: 0.8"/>
      </g>
     </g>
     <g id="text_4">
      <!-- 0.0 -->
      <g transform="translate(228.208438 322.182437) scale(0.1 -0.1)">
       <use xlink:href="#DejaVuSans-30"/>
       <use xlink:href="#DejaVuSans-2e" x="63.623047"/>
       <use xlink:href="#DejaVuSans-30" x="95.410156"/>
      </g>
     </g>
    </g>
    <g id="xtick_5">
     <g id="line2d_9">
      <path d="M 281.250909 307.584 
L 281.250909 41.472 
" clip-path="url(#pd8f3478859)" style="fill: none; stroke: #b0b0b0; stroke-width: 0.8; stroke-linecap: square"/>
     </g>
     <g id="line2d_10">
      <g>
       <use xlink:href="#m97442cf6ae" x="281.250909" y="307.584" style="stroke: #000000; stroke-width: 0.8"/>
      </g>
     </g>
     <g id="text_5">
      <!-- 2.5 -->
      <g transform="translate(273.299347 322.182437) scale(0.1 -0.1)">
       <use xlink:href="#DejaVuSans-32"/>
       <use xlink:href="#DejaVuSans-2e" x="63.623047"/>
       <use xlink:href="#DejaVuSans-35" x="95.410156"/>
      </g>
     </g>
    </g>
    <g id="xtick_6">
     <g id="line2d_11">
      <path d="M 326.341818 307.584 
L 326.341818 41.472 
" clip-path="url(#pd8f3478859)" style="fill: none; stroke: #b0b0b0; stroke-width: 0.8; stroke-linecap: square"/>
     </g>
     <g id="line2d_12">
      <g>
       <use xlink:href="#m97442cf6ae" x="326.341818" y="307.584" style="stroke: #000000; stroke-width: 0.8"/>
      </g>
     </g>
     <g id="text_6">
      <!-- 5.0 -->
      <g transform="translate(318.390256 322.182437) scale(0.1 -0.1)">
       <use xlink:href="#DejaVuSans-35"/>
       <use xlink:href="#DejaVuSans-2e" x="63.623047"/>
       <use xlink:href="#DejaVuSans-30" x="95.410156"/>
      </g>
     </g>
    </g>
    <g id="xtick_7">
     <g id="line2d_13">
      <path d="M 371.432727 307.584 
L 371.432727 41.472 
" clip-path="url(#pd8f3478859)" style="fill: none; stroke: #b0b0b0; stroke-width: 0.8; stroke-linecap: square"/>
     </g>
     <g id="line2d_14">
      <g>
       <use xlink:href="#m97442cf6ae" x="371.432727" y="307.584" style="stroke: #000000; stroke-width: 0.8"/>
      </g>
     </g>
     <g id="text_7">
      <!-- 7.5 -->
      <g transform="translate(363.481165 322.182437) scale(0.1 -0.1)">
       <use xlink:href="#DejaVuSans-37"/>
       <use xlink:href="#DejaVuSans-2e" x="63.623047"/>
       <use xlink:href="#DejaVuSans-35" x="95.410156"/>
      </g>
     </g>
    </g>
    <g id="text_8">
     <!-- $x$ -->
     <g transform="translate(233.16 335.860562) scale(0.1 -0.1)">
      <defs>
       <path id="DejaVuSans-Oblique-78" d="M 3841 3500 
L 2234 1784 
L 3219 0 
L 2559 0 
L 1819 1388 
L 531 0 
L -166 0 
L 1556 1844 
L 641 3500 
L 1300 3500 
L 1972 2234 
L 3144 3500 
L 3841 3500 
z
" transform="scale(0.015625)"/>
      </defs>
      <use xlink:href="#DejaVuSans-Oblique-78" transform="translate(0 0.3125)"/>
     </g>
    </g>
   </g>
   <g id="matplotlib.axis_2">
    <g id="ytick_1">
     <g id="line2d_15">
      <path d="M 57.6 307.584 
L 414.72 307.584 
" clip-path="url(#pd8f3478859)" style="fill: none; stroke: #b0b0b0; stroke-width: 0.8; stroke-linecap: square"/>
     </g>
     <g id="line2d_16">
      <defs>
       <path id="mba464c4886" d="M 0 0 
L -3.5 0 
" style="stroke: #000000; stroke-width: 0.8"/>
      </defs>
      <g>
       <use xlink:href="#mba464c4886" x="57.6" y="307.584" style="stroke: #000000; stroke-width: 0.8"/>
      </g>
     </g>
     <g id="text_9">
      <!-- 0.0 -->
      <g transform="translate(34.696875 311.383219) scale(0.1 -0.1)">
       <use xlink:href="#DejaVuSans-30"/>
       <use xlink:href="#DejaVuSans-2e" x="63.623047"/>
       <use xlink:href="#DejaVuSans-30" x="95.410156"/>
      </g>
     </g>
    </g>
    <g id="ytick_2">
     <g id="line2d_17">
      <path d="M 57.6 254.3616 
L 414.72 254.3616 
" clip-path="url(#pd8f3478859)" style="fill: none; stroke: #b0b0b0; stroke-width: 0.8; stroke-linecap: square"/>
     </g>
     <g id="line2d_18">
      <g>
       <use xlink:href="#mba464c4886" x="57.6" y="254.3616" style="stroke: #000000; stroke-width: 0.8"/>
      </g>
     </g>
     <g id="text_10">
      <!-- 0.2 -->
      <g transform="translate(34.696875 258.160819) scale(0.1 -0.1)">
       <use xlink:href="#DejaVuSans-30"/>
       <use xlink:href="#DejaVuSans-2e" x="63.623047"/>
       <use xlink:href="#DejaVuSans-32" x="95.410156"/>
      </g>
     </g>
    </g>
    <g id="ytick_3">
     <g id="line2d_19">
      <path d="M 57.6 201.1392 
L 414.72 201.1392 
" clip-path="url(#pd8f3478859)" style="fill: none; stroke: #b0b0b0; stroke-width: 0.8; stroke-linecap: square"/>
     </g>
     <g id="line2d_20">
      <g>
       <use xlink:href="#mba464c4886" x="57.6" y="201.1392" style="stroke: #000000; stroke-width: 0.8"/>
      </g>
     </g>
     <g id="text_11">
      <!-- 0.4 -->
      <g transform="translate(34.696875 204.938419) scale(0.1 -0.1)">
       <defs>
        <path id="DejaVuSans-34" d="M 2419 4116 
L 825 1625 
L 2419 1625 
L 2419 4116 
z
M 2253 4666 
L 3047 4666 
L 3047 1625 
L 3713 1625 
L 3713 1100 
L 3047 1100 
L 3047 0 
L 2419 0 
L 2419 1100 
L 313 1100 
L 313 1709 
L 2253 4666 
z
" transform="scale(0.015625)"/>
       </defs>
       <use xlink:href="#DejaVuSans-30"/>
       <use xlink:href="#DejaVuSans-2e" x="63.623047"/>
       <use xlink:href="#DejaVuSans-34" x="95.410156"/>
      </g>
     </g>
    </g>
    <g id="ytick_4">
     <g id="line2d_21">
      <path d="M 57.6 147.9168 
L 414.72 147.9168 
" clip-path="url(#pd8f3478859)" style="fill: none; stroke: #b0b0b0; stroke-width: 0.8; stroke-linecap: square"/>
     </g>
     <g id="line2d_22">
      <g>
       <use xlink:href="#mba464c4886" x="57.6" y="147.9168" style="stroke: #000000; stroke-width: 0.8"/>
      </g>
     </g>
     <g id="text_12">
      <!-- 0.6 -->
      <g transform="translate(34.696875 151.716019) scale(0.1 -0.1)">
       <defs>
        <path id="DejaVuSans-36" d="M 2113 2584 
Q 1688 2584 1439 2293 
Q 1191 2003 1191 1497 
Q 1191 994 1439 701 
Q 1688 409 2113 409 
Q 2538 409 2786 701 
Q 3034 994 3034 1497 
Q 3034 2003 2786 2293 
Q 2538 2584 2113 2584 
z
M 3366 4563 
L 3366 3988 
Q 3128 4100 2886 4159 
Q 2644 4219 2406 4219 
Q 1781 4219 1451 3797 
Q 1122 3375 1075 2522 
Q 1259 2794 1537 2939 
Q 1816 3084 2150 3084 
Q 2853 3084 3261 2657 
Q 3669 2231 3669 1497 
Q 3669 778 3244 343 
Q 2819 -91 2113 -91 
Q 1303 -91 875 529 
Q 447 1150 447 2328 
Q 447 3434 972 4092 
Q 1497 4750 2381 4750 
Q 2619 4750 2861 4703 
Q 3103 4656 3366 4563 
z
" transform="scale(0.015625)"/>
       </defs>
       <use xlink:href="#DejaVuSans-30"/>
       <use xlink:href="#DejaVuSans-2e" x="63.623047"/>
       <use xlink:href="#DejaVuSans-36" x="95.410156"/>
      </g>
     </g>
    </g>
    <g id="ytick_5">
     <g id="line2d_23">
      <path d="M 57.6 94.6944 
L 414.72 94.6944 
" clip-path="url(#pd8f3478859)" style="fill: none; stroke: #b0b0b0; stroke-width: 0.8; stroke-linecap: square"/>
     </g>
     <g id="line2d_24">
      <g>
       <use xlink:href="#mba464c4886" x="57.6" y="94.6944" style="stroke: #000000; stroke-width: 0.8"/>
      </g>
     </g>
     <g id="text_13">
      <!-- 0.8 -->
      <g transform="translate(34.696875 98.493619) scale(0.1 -0.1)">
       <defs>
        <path id="DejaVuSans-38" d="M 2034 2216 
Q 1584 2216 1326 1975 
Q 1069 1734 1069 1313 
Q 1069 891 1326 650 
Q 1584 409 2034 409 
Q 2484 409 2743 651 
Q 3003 894 3003 1313 
Q 3003 1734 2745 1975 
Q 2488 2216 2034 2216 
z
M 1403 2484 
Q 997 2584 770 2862 
Q 544 3141 544 3541 
Q 544 4100 942 4425 
Q 1341 4750 2034 4750 
Q 2731 4750 3128 4425 
Q 3525 4100 3525 3541 
Q 3525 3141 3298 2862 
Q 3072 2584 2669 2484 
Q 3125 2378 3379 2068 
Q 3634 1759 3634 1313 
Q 3634 634 3220 271 
Q 2806 -91 2034 -91 
Q 1263 -91 848 271 
Q 434 634 434 1313 
Q 434 1759 690 2068 
Q 947 2378 1403 2484 
z
M 1172 3481 
Q 1172 3119 1398 2916 
Q 1625 2713 2034 2713 
Q 2441 2713 2670 2916 
Q 2900 3119 2900 3481 
Q 2900 3844 2670 4047 
Q 2441 4250 2034 4250 
Q 1625 4250 1398 4047 
Q 1172 3844 1172 3481 
z
" transform="scale(0.015625)"/>
       </defs>
       <use xlink:href="#DejaVuSans-30"/>
       <use xlink:href="#DejaVuSans-2e" x="63.623047"/>
       <use xlink:href="#DejaVuSans-38" x="95.410156"/>
      </g>
     </g>
    </g>
    <g id="ytick_6">
     <g id="line2d_25">
      <path d="M 57.6 41.472 
L 414.72 41.472 
" clip-path="url(#pd8f3478859)" style="fill: none; stroke: #b0b0b0; stroke-width: 0.8; stroke-linecap: square"/>
     </g>
     <g id="line2d_26">
      <g>
       <use xlink:href="#mba464c4886" x="57.6" y="41.472" style="stroke: #000000; stroke-width: 0.8"/>
      </g>
     </g>
     <g id="text_14">
      <!-- 1.0 -->
      <g transform="translate(34.696875 45.271219) scale(0.1 -0.1)">
       <defs>
        <path id="DejaVuSans-31" d="M 794 531 
L 1825 531 
L 1825 4091 
L 703 3866 
L 703 4441 
L 1819 4666 
L 2450 4666 
L 2450 531 
L 3481 531 
L 3481 0 
L 794 0 
L 794 531 
z
" transform="scale(0.015625)"/>
       </defs>
       <use xlink:href="#DejaVuSans-31"/>
       <use xlink:href="#DejaVuSans-2e" x="63.623047"/>
       <use xlink:href="#DejaVuSans-30" x="95.410156"/>
      </g>
     </g>
    </g>
    <g id="text_15">
     <!-- $n(x)/\int dx n(x)$ -->
     <g transform="translate(27.596875 206.128) rotate(-90) scale(0.1 -0.1)">
      <defs>
       <path id="DejaVuSans-Oblique-6e" d="M 3566 2113 
L 3156 0 
L 2578 0 
L 2988 2091 
Q 3016 2238 3031 2350 
Q 3047 2463 3047 2528 
Q 3047 2791 2881 2937 
Q 2716 3084 2419 3084 
Q 1956 3084 1622 2776 
Q 1288 2469 1184 1941 
L 800 0 
L 225 0 
L 903 3500 
L 1478 3500 
L 1363 2950 
Q 1603 3253 1940 3418 
Q 2278 3584 2650 3584 
Q 3113 3584 3367 3334 
Q 3622 3084 3622 2631 
Q 3622 2519 3608 2391 
Q 3594 2263 3566 2113 
z
" transform="scale(0.015625)"/>
       <path id="DejaVuSans-28" d="M 1984 4856 
Q 1566 4138 1362 3434 
Q 1159 2731 1159 2009 
Q 1159 1288 1364 580 
Q 1569 -128 1984 -844 
L 1484 -844 
Q 1016 -109 783 600 
Q 550 1309 550 2009 
Q 550 2706 781 3412 
Q 1013 4119 1484 4856 
L 1984 4856 
z
" transform="scale(0.015625)"/>
       <path id="DejaVuSans-29" d="M 513 4856 
L 1013 4856 
Q 1481 4119 1714 3412 
Q 1947 2706 1947 2009 
Q 1947 1309 1714 600 
Q 1481 -109 1013 -844 
L 513 -844 
Q 928 -128 1133 580 
Q 1338 1288 1338 2009 
Q 1338 2731 1133 3434 
Q 928 4138 513 4856 
z
" transform="scale(0.015625)"/>
       <path id="DejaVuSans-2f" d="M 1625 4666 
L 2156 4666 
L 531 -594 
L 0 -594 
L 1625 4666 
z
" transform="scale(0.015625)"/>
       <path id="DejaVuSansDisplay-222b" d="M 2134 5525 
Q 2172 6263 2528 6556 
Q 2884 6850 3218 6850 
Q 3553 6850 3833 6575 
Q 4113 6300 4200 5678 
L 3544 5613 
Q 3469 6188 3219 6188 
Q 2906 6188 2869 5413 
L 2581 -597 
Q 2547 -1334 2187 -1628 
Q 1828 -1922 1497 -1922 
Q 1163 -1922 883 -1647 
Q 603 -1372 516 -750 
L 1172 -684 
Q 1247 -1259 1497 -1259 
Q 1809 -1259 1847 -488 
L 2134 5525 
z
" transform="scale(0.015625)"/>
       <path id="DejaVuSans-Oblique-64" d="M 2675 525 
Q 2444 222 2128 65 
Q 1813 -91 1428 -91 
Q 903 -91 598 267 
Q 294 625 294 1247 
Q 294 1766 478 2236 
Q 663 2706 1013 3078 
Q 1244 3325 1534 3454 
Q 1825 3584 2144 3584 
Q 2481 3584 2739 3421 
Q 2997 3259 3138 2956 
L 3513 4863 
L 4091 4863 
L 3144 0 
L 2566 0 
L 2675 525 
z
M 891 1350 
Q 891 897 1095 644 
Q 1300 391 1663 391 
Q 1931 391 2161 520 
Q 2391 650 2566 903 
Q 2750 1166 2856 1509 
Q 2963 1853 2963 2188 
Q 2963 2622 2758 2865 
Q 2553 3109 2194 3109 
Q 1922 3109 1687 2981 
Q 1453 2853 1288 2613 
Q 1106 2353 998 2009 
Q 891 1666 891 1350 
z
" transform="scale(0.015625)"/>
      </defs>
      <use xlink:href="#DejaVuSans-Oblique-6e" transform="translate(0 0.96875)"/>
      <use xlink:href="#DejaVuSans-28" transform="translate(63.378906 0.96875)"/>
      <use xlink:href="#DejaVuSans-Oblique-78" transform="translate(102.392578 0.96875)"/>
      <use xlink:href="#DejaVuSans-29" transform="translate(161.572266 0.96875)"/>
      <use xlink:href="#DejaVuSans-2f" transform="translate(200.585938 0.96875)"/>
      <use xlink:href="#DejaVuSansDisplay-222b" transform="translate(234.277344 0.96875)"/>
      <use xlink:href="#DejaVuSans-Oblique-64" transform="translate(307.910156 0.96875)"/>
      <use xlink:href="#DejaVuSans-Oblique-78" transform="translate(371.386719 0.96875)"/>
      <use xlink:href="#DejaVuSans-Oblique-6e" transform="translate(430.566406 0.96875)"/>
      <use xlink:href="#DejaVuSans-28" transform="translate(493.945312 0.96875)"/>
      <use xlink:href="#DejaVuSans-Oblique-78" transform="translate(532.958984 0.96875)"/>
      <use xlink:href="#DejaVuSans-29" transform="translate(592.138672 0.96875)"/>
     </g>
    </g>
   </g>
   <g id="line2d_27">
    <path d="M 73.832727 307.584 
L 78.751736 307.584 
L 83.670744 307.584 
L 88.589752 307.584 
L 93.50876 307.584 
L 98.427769 307.584 
L 103.346777 307.584 
L 108.265785 307.584 
L 113.184793 307.584 
L 118.103802 307.584 
L 123.02281 307.584 
L 127.941818 307.584 
L 132.860826 307.584 
L 137.779835 307.584 
L 142.698843 307.584 
L 147.617851 307.584 
L 152.53686 307.584 
L 157.455868 307.584 
L 162.374876 307.584 
L 167.293884 307.584 
L 172.212893 307.584 
L 177.131901 307.584 
L 182.050909 307.584 
L 186.969917 307.584 
L 191.888926 307.584 
L 196.807934 307.388871 
L 201.726942 306.12053 
L 206.64595 302.803332 
L 211.564959 297.632406 
L 216.483967 280.070771 
L 221.402975 257.923596 
L 226.321983 217.726963 
L 231.240992 175.774167 
L 236.16 151.773264 
L 241.079008 146.992597 
L 245.998017 163.188328 
L 250.917025 211.77552 
L 255.836033 250.02086 
L 260.755041 278.704866 
L 265.67405 294.803032 
L 270.593058 303.876544 
L 275.512066 306.901047 
L 280.431074 307.388871 
L 285.350083 307.486435 
L 290.269091 307.584 
L 295.188099 307.584 
L 300.107107 307.584 
L 305.026116 307.584 
L 309.945124 307.584 
L 314.864132 307.584 
L 319.78314 307.584 
L 324.702149 307.584 
L 329.621157 307.584 
L 334.540165 307.584 
L 339.459174 307.584 
L 344.378182 307.584 
L 349.29719 307.584 
L 354.216198 307.584 
L 359.135207 307.584 
L 364.054215 307.584 
L 368.973223 307.584 
L 373.892231 307.584 
L 378.81124 307.584 
L 383.730248 307.584 
L 388.649256 307.584 
L 393.568264 307.584 
L 398.487273 307.584 
" clip-path="url(#pd8f3478859)" style="fill: none; stroke: #8b0000; stroke-width: 1.5; stroke-linecap: square"/>
    <defs>
     <path id="m6996991add" d="M 0 1 
C 0.265203 1 0.51958 0.894634 0.707107 0.707107 
C 0.894634 0.51958 1 0.265203 1 0 
C 1 -0.265203 0.894634 -0.51958 0.707107 -0.707107 
C 0.51958 -0.894634 0.265203 -1 0 -1 
C -0.265203 -1 -0.51958 -0.894634 -0.707107 -0.707107 
C -0.894634 -0.51958 -1 -0.265203 -1 0 
C -1 0.265203 -0.894634 0.51958 -0.707107 0.707107 
C -0.51958 0.894634 -0.265203 1 0 1 
z
" style="stroke: #8b0000"/>
    </defs>
    <g clip-path="url(#pd8f3478859)">
     <use xlink:href="#m6996991add" x="73.832727" y="307.584" style="fill: #8b0000; stroke: #8b0000"/>
     <use xlink:href="#m6996991add" x="78.751736" y="307.584" style="fill: #8b0000; stroke: #8b0000"/>
     <use xlink:href="#m6996991add" x="83.670744" y="307.584" style="fill: #8b0000; stroke: #8b0000"/>
     <use xlink:href="#m6996991add" x="88.589752" y="307.584" style="fill: #8b0000; stroke: #8b0000"/>
     <use xlink:href="#m6996991add" x="93.50876" y="307.584" style="fill: #8b0000; stroke: #8b0000"/>
     <use xlink:href="#m6996991add" x="98.427769" y="307.584" style="fill: #8b0000; stroke: #8b0000"/>
     <use xlink:href="#m6996991add" x="103.346777" y="307.584" style="fill: #8b0000; stroke: #8b0000"/>
     <use xlink:href="#m6996991add" x="108.265785" y="307.584" style="fill: #8b0000; stroke: #8b0000"/>
     <use xlink:href="#m6996991add" x="113.184793" y="307.584" style="fill: #8b0000; stroke: #8b0000"/>
     <use xlink:href="#m6996991add" x="118.103802" y="307.584" style="fill: #8b0000; stroke: #8b0000"/>
     <use xlink:href="#m6996991add" x="123.02281" y="307.584" style="fill: #8b0000; stroke: #8b0000"/>
     <use xlink:href="#m6996991add" x="127.941818" y="307.584" style="fill: #8b0000; stroke: #8b0000"/>
     <use xlink:href="#m6996991add" x="132.860826" y="307.584" style="fill: #8b0000; stroke: #8b0000"/>
     <use xlink:href="#m6996991add" x="137.779835" y="307.584" style="fill: #8b0000; stroke: #8b0000"/>
     <use xlink:href="#m6996991add" x="142.698843" y="307.584" style="fill: #8b0000; stroke: #8b0000"/>
     <use xlink:href="#m6996991add" x="147.617851" y="307.584" style="fill: #8b0000; stroke: #8b0000"/>
     <use xlink:href="#m6996991add" x="152.53686" y="307.584" style="fill: #8b0000; stroke: #8b0000"/>
     <use xlink:href="#m6996991add" x="157.455868" y="307.584" style="fill: #8b0000; stroke: #8b0000"/>
     <use xlink:href="#m6996991add" x="162.374876" y="307.584" style="fill: #8b0000; stroke: #8b0000"/>
     <use xlink:href="#m6996991add" x="167.293884" y="307.584" style="fill: #8b0000; stroke: #8b0000"/>
     <use xlink:href="#m6996991add" x="172.212893" y="307.584" style="fill: #8b0000; stroke: #8b0000"/>
     <use xlink:href="#m6996991add" x="177.131901" y="307.584" style="fill: #8b0000; stroke: #8b0000"/>
     <use xlink:href="#m6996991add" x="182.050909" y="307.584" style="fill: #8b0000; stroke: #8b0000"/>
     <use xlink:href="#m6996991add" x="186.969917" y="307.584" style="fill: #8b0000; stroke: #8b0000"/>
     <use xlink:href="#m6996991add" x="191.888926" y="307.584" style="fill: #8b0000; stroke: #8b0000"/>
     <use xlink:href="#m6996991add" x="196.807934" y="307.388871" style="fill: #8b0000; stroke: #8b0000"/>
     <use xlink:href="#m6996991add" x="201.726942" y="306.12053" style="fill: #8b0000; stroke: #8b0000"/>
     <use xlink:href="#m6996991add" x="206.64595" y="302.803332" style="fill: #8b0000; stroke: #8b0000"/>
     <use xlink:href="#m6996991add" x="211.564959" y="297.632406" style="fill: #8b0000; stroke: #8b0000"/>
     <use xlink:href="#m6996991add" x="216.483967" y="280.070771" style="fill: #8b0000; stroke: #8b0000"/>
     <use xlink:href="#m6996991add" x="221.402975" y="257.923596" style="fill: #8b0000; stroke: #8b0000"/>
     <use xlink:href="#m6996991add" x="226.321983" y="217.726963" style="fill: #8b0000; stroke: #8b0000"/>
     <use xlink:href="#m6996991add" x="231.240992" y="175.774167" style="fill: #8b0000; stroke: #8b0000"/>
     <use xlink:href="#m6996991add" x="236.16" y="151.773264" style="fill: #8b0000; stroke: #8b0000"/>
     <use xlink:href="#m6996991add" x="241.079008" y="146.992597" style="fill: #8b0000; stroke: #8b0000"/>
     <use xlink:href="#m6996991add" x="245.998017" y="163.188328" style="fill: #8b0000; stroke: #8b0000"/>
     <use xlink:href="#m6996991add" x="250.917025" y="211.77552" style="fill: #8b0000; stroke: #8b0000"/>
     <use xlink:href="#m6996991add" x="255.836033" y="250.02086" style="fill: #8b0000; stroke: #8b0000"/>
     <use xlink:href="#m6996991add" x="260.755041" y="278.704866" style="fill: #8b0000; stroke: #8b0000"/>
     <use xlink:href="#m6996991add" x="265.67405" y="294.803032" style="fill: #8b0000; stroke: #8b0000"/>
     <use xlink:href="#m6996991add" x="270.593058" y="303.876544" style="fill: #8b0000; stroke: #8b0000"/>
     <use xlink:href="#m6996991add" x="275.512066" y="306.901047" style="fill: #8b0000; stroke: #8b0000"/>
     <use xlink:href="#m6996991add" x="280.431074" y="307.388871" style="fill: #8b0000; stroke: #8b0000"/>
     <use xlink:href="#m6996991add" x="285.350083" y="307.486435" style="fill: #8b0000; stroke: #8b0000"/>
     <use xlink:href="#m6996991add" x="290.269091" y="307.584" style="fill: #8b0000; stroke: #8b0000"/>
     <use xlink:href="#m6996991add" x="295.188099" y="307.584" style="fill: #8b0000; stroke: #8b0000"/>
     <use xlink:href="#m6996991add" x="300.107107" y="307.584" style="fill: #8b0000; stroke: #8b0000"/>
     <use xlink:href="#m6996991add" x="305.026116" y="307.584" style="fill: #8b0000; stroke: #8b0000"/>
     <use xlink:href="#m6996991add" x="309.945124" y="307.584" style="fill: #8b0000; stroke: #8b0000"/>
     <use xlink:href="#m6996991add" x="314.864132" y="307.584" style="fill: #8b0000; stroke: #8b0000"/>
     <use xlink:href="#m6996991add" x="319.78314" y="307.584" style="fill: #8b0000; stroke: #8b0000"/>
     <use xlink:href="#m6996991add" x="324.702149" y="307.584" style="fill: #8b0000; stroke: #8b0000"/>
     <use xlink:href="#m6996991add" x="329.621157" y="307.584" style="fill: #8b0000; stroke: #8b0000"/>
     <use xlink:href="#m6996991add" x="334.540165" y="307.584" style="fill: #8b0000; stroke: #8b0000"/>
     <use xlink:href="#m6996991add" x="339.459174" y="307.584" style="fill: #8b0000; stroke: #8b0000"/>
     <use xlink:href="#m6996991add" x="344.378182" y="307.584" style="fill: #8b0000; stroke: #8b0000"/>
     <use xlink:href="#m6996991add" x="349.29719" y="307.584" style="fill: #8b0000; stroke: #8b0000"/>
     <use xlink:href="#m6996991add" x="354.216198" y="307.584" style="fill: #8b0000; stroke: #8b0000"/>
     <use xlink:href="#m6996991add" x="359.135207" y="307.584" style="fill: #8b0000; stroke: #8b0000"/>
     <use xlink:href="#m6996991add" x="364.054215" y="307.584" style="fill: #8b0000; stroke: #8b0000"/>
     <use xlink:href="#m6996991add" x="368.973223" y="307.584" style="fill: #8b0000; stroke: #8b0000"/>
     <use xlink:href="#m6996991add" x="373.892231" y="307.584" style="fill: #8b0000; stroke: #8b0000"/>
     <use xlink:href="#m6996991add" x="378.81124" y="307.584" style="fill: #8b0000; stroke: #8b0000"/>
     <use xlink:href="#m6996991add" x="383.730248" y="307.584" style="fill: #8b0000; stroke: #8b0000"/>
     <use xlink:href="#m6996991add" x="388.649256" y="307.584" style="fill: #8b0000; stroke: #8b0000"/>
     <use xlink:href="#m6996991add" x="393.568264" y="307.584" style="fill: #8b0000; stroke: #8b0000"/>
     <use xlink:href="#m6996991add" x="398.487273" y="307.584" style="fill: #8b0000; stroke: #8b0000"/>
    </g>
   </g>
   <g id="line2d_28">
    <path d="M 73.832727 307.584 
L 78.751736 307.584 
L 83.670744 307.584 
L 88.589752 307.584 
L 93.50876 307.584 
L 98.427769 307.584 
L 103.346777 307.584 
L 108.265785 307.584 
L 113.184793 307.584 
L 118.103802 307.584 
L 123.02281 307.584 
L 127.941818 307.584 
L 132.860826 307.584 
L 137.779835 307.584 
L 142.698843 307.584 
L 147.617851 307.584 
L 152.53686 307.584 
L 157.455868 307.584 
L 162.374876 307.584 
L 167.293884 307.584 
L 172.212893 307.584 
L 177.131901 307.584 
L 182.050909 307.584 
L 186.969917 307.584 
L 191.888926 307.584 
L 196.807934 307.584 
L 201.726942 307.096177 
L 206.64595 304.169237 
L 211.564959 297.144583 
L 216.483967 279.680512 
L 221.402975 253.533187 
L 226.321983 203.189831 
L 231.240992 160.456518 
L 236.16 143.48027 
L 241.079008 143.48027 
L 245.998017 182.213433 
L 250.917025 219.092868 
L 255.836033 255.289351 
L 260.755041 286.705166 
L 265.67405 299.291005 
L 270.593058 304.169237 
L 275.512066 306.608354 
L 280.431074 307.584 
L 285.350083 307.584 
L 290.269091 307.584 
L 295.188099 307.584 
L 300.107107 307.584 
L 305.026116 307.584 
L 309.945124 307.584 
L 314.864132 307.584 
L 319.78314 307.584 
L 324.702149 307.584 
L 329.621157 307.584 
L 334.540165 307.584 
L 339.459174 307.584 
L 344.378182 307.584 
L 349.29719 307.584 
L 354.216198 307.584 
L 359.135207 307.584 
L 364.054215 307.584 
L 368.973223 307.584 
L 373.892231 307.584 
L 378.81124 307.584 
L 383.730248 307.584 
L 388.649256 307.584 
L 393.568264 307.584 
L 398.487273 307.584 
" clip-path="url(#pd8f3478859)" style="fill: none; stroke: #ff0000; stroke-width: 1.5; stroke-linecap: square"/>
    <defs>
     <path id="m2e6fd03969" d="M 0 1 
C 0.265203 1 0.51958 0.894634 0.707107 0.707107 
C 0.894634 0.51958 1 0.265203 1 0 
C 1 -0.265203 0.894634 -0.51958 0.707107 -0.707107 
C 0.51958 -0.894634 0.265203 -1 0 -1 
C -0.265203 -1 -0.51958 -0.894634 -0.707107 -0.707107 
C -0.894634 -0.51958 -1 -0.265203 -1 0 
C -1 0.265203 -0.894634 0.51958 -0.707107 0.707107 
C -0.51958 0.894634 -0.265203 1 0 1 
z
" style="stroke: #ff0000"/>
    </defs>
    <g clip-path="url(#pd8f3478859)">
     <use xlink:href="#m2e6fd03969" x="73.832727" y="307.584" style="fill: #ff0000; stroke: #ff0000"/>
     <use xlink:href="#m2e6fd03969" x="78.751736" y="307.584" style="fill: #ff0000; stroke: #ff0000"/>
     <use xlink:href="#m2e6fd03969" x="83.670744" y="307.584" style="fill: #ff0000; stroke: #ff0000"/>
     <use xlink:href="#m2e6fd03969" x="88.589752" y="307.584" style="fill: #ff0000; stroke: #ff0000"/>
     <use xlink:href="#m2e6fd03969" x="93.50876" y="307.584" style="fill: #ff0000; stroke: #ff0000"/>
     <use xlink:href="#m2e6fd03969" x="98.427769" y="307.584" style="fill: #ff0000; stroke: #ff0000"/>
     <use xlink:href="#m2e6fd03969" x="103.346777" y="307.584" style="fill: #ff0000; stroke: #ff0000"/>
     <use xlink:href="#m2e6fd03969" x="108.265785" y="307.584" style="fill: #ff0000; stroke: #ff0000"/>
     <use xlink:href="#m2e6fd03969" x="113.184793" y="307.584" style="fill: #ff0000; stroke: #ff0000"/>
     <use xlink:href="#m2e6fd03969" x="118.103802" y="307.584" style="fill: #ff0000; stroke: #ff0000"/>
     <use xlink:href="#m2e6fd03969" x="123.02281" y="307.584" style="fill: #ff0000; stroke: #ff0000"/>
     <use xlink:href="#m2e6fd03969" x="127.941818" y="307.584" style="fill: #ff0000; stroke: #ff0000"/>
     <use xlink:href="#m2e6fd03969" x="132.860826" y="307.584" style="fill: #ff0000; stroke: #ff0000"/>
     <use xlink:href="#m2e6fd03969" x="137.779835" y="307.584" style="fill: #ff0000; stroke: #ff0000"/>
     <use xlink:href="#m2e6fd03969" x="142.698843" y="307.584" style="fill: #ff0000; stroke: #ff0000"/>
     <use xlink:href="#m2e6fd03969" x="147.617851" y="307.584" style="fill: #ff0000; stroke: #ff0000"/>
     <use xlink:href="#m2e6fd03969" x="152.53686" y="307.584" style="fill: #ff0000; stroke: #ff0000"/>
     <use xlink:href="#m2e6fd03969" x="157.455868" y="307.584" style="fill: #ff0000; stroke: #ff0000"/>
     <use xlink:href="#m2e6fd03969" x="162.374876" y="307.584" style="fill: #ff0000; stroke: #ff0000"/>
     <use xlink:href="#m2e6fd03969" x="167.293884" y="307.584" style="fill: #ff0000; stroke: #ff0000"/>
     <use xlink:href="#m2e6fd03969" x="172.212893" y="307.584" style="fill: #ff0000; stroke: #ff0000"/>
     <use xlink:href="#m2e6fd03969" x="177.131901" y="307.584" style="fill: #ff0000; stroke: #ff0000"/>
     <use xlink:href="#m2e6fd03969" x="182.050909" y="307.584" style="fill: #ff0000; stroke: #ff0000"/>
     <use xlink:href="#m2e6fd03969" x="186.969917" y="307.584" style="fill: #ff0000; stroke: #ff0000"/>
     <use xlink:href="#m2e6fd03969" x="191.888926" y="307.584" style="fill: #ff0000; stroke: #ff0000"/>
     <use xlink:href="#m2e6fd03969" x="196.807934" y="307.584" style="fill: #ff0000; stroke: #ff0000"/>
     <use xlink:href="#m2e6fd03969" x="201.726942" y="307.096177" style="fill: #ff0000; stroke: #ff0000"/>
     <use xlink:href="#m2e6fd03969" x="206.64595" y="304.169237" style="fill: #ff0000; stroke: #ff0000"/>
     <use xlink:href="#m2e6fd03969" x="211.564959" y="297.144583" style="fill: #ff0000; stroke: #ff0000"/>
     <use xlink:href="#m2e6fd03969" x="216.483967" y="279.680512" style="fill: #ff0000; stroke: #ff0000"/>
     <use xlink:href="#m2e6fd03969" x="221.402975" y="253.533187" style="fill: #ff0000; stroke: #ff0000"/>
     <use xlink:href="#m2e6fd03969" x="226.321983" y="203.189831" style="fill: #ff0000; stroke: #ff0000"/>
     <use xlink:href="#m2e6fd03969" x="231.240992" y="160.456518" style="fill: #ff0000; stroke: #ff0000"/>
     <use xlink:href="#m2e6fd03969" x="236.16" y="143.48027" style="fill: #ff0000; stroke: #ff0000"/>
     <use xlink:href="#m2e6fd03969" x="241.079008" y="143.48027" style="fill: #ff0000; stroke: #ff0000"/>
     <use xlink:href="#m2e6fd03969" x="245.998017" y="182.213433" style="fill: #ff0000; stroke: #ff0000"/>
     <use xlink:href="#m2e6fd03969" x="250.917025" y="219.092868" style="fill: #ff0000; stroke: #ff0000"/>
     <use xlink:href="#m2e6fd03969" x="255.836033" y="255.289351" style="fill: #ff0000; stroke: #ff0000"/>
     <use xlink:href="#m2e6fd03969" x="260.755041" y="286.705166" style="fill: #ff0000; stroke: #ff0000"/>
     <use xlink:href="#m2e6fd03969" x="265.67405" y="299.291005" style="fill: #ff0000; stroke: #ff0000"/>
     <use xlink:href="#m2e6fd03969" x="270.593058" y="304.169237" style="fill: #ff0000; stroke: #ff0000"/>
     <use xlink:href="#m2e6fd03969" x="275.512066" y="306.608354" style="fill: #ff0000; stroke: #ff0000"/>
     <use xlink:href="#m2e6fd03969" x="280.431074" y="307.584" style="fill: #ff0000; stroke: #ff0000"/>
     <use xlink:href="#m2e6fd03969" x="285.350083" y="307.584" style="fill: #ff0000; stroke: #ff0000"/>
     <use xlink:href="#m2e6fd03969" x="290.269091" y="307.584" style="fill: #ff0000; stroke: #ff0000"/>
     <use xlink:href="#m2e6fd03969" x="295.188099" y="307.584" style="fill: #ff0000; stroke: #ff0000"/>
     <use xlink:href="#m2e6fd03969" x="300.107107" y="307.584" style="fill: #ff0000; stroke: #ff0000"/>
     <use xlink:href="#m2e6fd03969" x="305.026116" y="307.584" style="fill: #ff0000; stroke: #ff0000"/>
     <use xlink:href="#m2e6fd03969" x="309.945124" y="307.584" style="fill: #ff0000; stroke: #ff0000"/>
     <use xlink:href="#m2e6fd03969" x="314.864132" y="307.584" style="fill: #ff0000; stroke: #ff0000"/>
     <use xlink:href="#m2e6fd03969" x="319.78314" y="307.584" style="fill: #ff0000; stroke: #ff0000"/>
     <use xlink:href="#m2e6fd03969" x="324.702149" y="307.584" style="fill: #ff0000; stroke: #ff0000"/>
     <use xlink:href="#m2e6fd03969" x="329.621157" y="307.584" style="fill: #ff0000; stroke: #ff0000"/>
     <use xlink:href="#m2e6fd03969" x="334.540165" y="307.584" style="fill: #ff0000; stroke: #ff0000"/>
     <use xlink:href="#m2e6fd03969" x="339.459174" y="307.584" style="fill: #ff0000; stroke: #ff0000"/>
     <use xlink:href="#m2e6fd03969" x="344.378182" y="307.584" style="fill: #ff0000; stroke: #ff0000"/>
     <use xlink:href="#m2e6fd03969" x="349.29719" y="307.584" style="fill: #ff0000; stroke: #ff0000"/>
     <use xlink:href="#m2e6fd03969" x="354.216198" y="307.584" style="fill: #ff0000; stroke: #ff0000"/>
     <use xlink:href="#m2e6fd03969" x="359.135207" y="307.584" style="fill: #ff0000; stroke: #ff0000"/>
     <use xlink:href="#m2e6fd03969" x="364.054215" y="307.584" style="fill: #ff0000; stroke: #ff0000"/>
     <use xlink:href="#m2e6fd03969" x="368.973223" y="307.584" style="fill: #ff0000; stroke: #ff0000"/>
     <use xlink:href="#m2e6fd03969" x="373.892231" y="307.584" style="fill: #ff0000; stroke: #ff0000"/>
     <use xlink:href="#m2e6fd03969" x="378.81124" y="307.584" style="fill: #ff0000; stroke: #ff0000"/>
     <use xlink:href="#m2e6fd03969" x="383.730248" y="307.584" style="fill: #ff0000; stroke: #ff0000"/>
     <use xlink:href="#m2e6fd03969" x="388.649256" y="307.584" style="fill: #ff0000; stroke: #ff0000"/>
     <use xlink:href="#m2e6fd03969" x="393.568264" y="307.584" style="fill: #ff0000; stroke: #ff0000"/>
     <use xlink:href="#m2e6fd03969" x="398.487273" y="307.584" style="fill: #ff0000; stroke: #ff0000"/>
    </g>
   </g>
   <g id="line2d_29">
    <path d="M 73.832727 307.584 
L 80.890435 307.584 
L 87.948142 307.584 
L 95.00585 307.584 
L 102.063557 307.584 
L 109.121265 307.584 
L 116.178972 307.584 
L 123.23668 307.584 
L 130.294387 307.584 
L 137.352095 307.584 
L 144.409802 307.584 
L 151.46751 307.584 
L 158.525217 307.584 
L 165.582925 307.584 
L 172.640632 307.312002 
L 179.69834 306.224008 
L 186.756047 303.572024 
L 193.813755 299.832046 
L 200.871462 290.5161 
L 207.92917 276.168185 
L 214.986877 261.276272 
L 222.044585 246.38436 
L 229.102292 233.736434 
L 236.16 224.488489 
L 243.217708 222.856498 
L 250.275415 228.160467 
L 257.333123 234.212432 
L 264.39083 254.272314 
L 271.448538 274.944192 
L 278.506245 290.176102 
L 285.563953 299.560047 
L 292.62166 303.708023 
L 299.679368 306.632006 
L 306.737075 307.584 
L 313.794783 307.584 
L 320.85249 307.584 
L 327.910198 307.584 
L 334.967905 307.584 
L 342.025613 307.584 
L 349.08332 307.584 
L 356.141028 307.584 
L 363.198735 307.584 
L 370.256443 307.584 
L 377.31415 307.584 
L 384.371858 307.584 
L 391.429565 307.584 
L 398.487273 307.584 
" clip-path="url(#pd8f3478859)" style="fill: none; stroke: #0000ff; stroke-width: 1.5; stroke-linecap: square"/>
    <defs>
     <path id="mce1f9855f0" d="M 0 1 
C 0.265203 1 0.51958 0.894634 0.707107 0.707107 
C 0.894634 0.51958 1 0.265203 1 0 
C 1 -0.265203 0.894634 -0.51958 0.707107 -0.707107 
C 0.51958 -0.894634 0.265203 -1 0 -1 
C -0.265203 -1 -0.51958 -0.894634 -0.707107 -0.707107 
C -0.894634 -0.51958 -1 -0.265203 -1 0 
C -1 0.265203 -0.894634 0.51958 -0.707107 0.707107 
C -0.51958 0.894634 -0.265203 1 0 1 
z
" style="stroke: #0000ff"/>
    </defs>
    <g clip-path="url(#pd8f3478859)">
     <use xlink:href="#mce1f9855f0" x="73.832727" y="307.584" style="fill: #0000ff; stroke: #0000ff"/>
     <use xlink:href="#mce1f9855f0" x="80.890435" y="307.584" style="fill: #0000ff; stroke: #0000ff"/>
     <use xlink:href="#mce1f9855f0" x="87.948142" y="307.584" style="fill: #0000ff; stroke: #0000ff"/>
     <use xlink:href="#mce1f9855f0" x="95.00585" y="307.584" style="fill: #0000ff; stroke: #0000ff"/>
     <use xlink:href="#mce1f9855f0" x="102.063557" y="307.584" style="fill: #0000ff; stroke: #0000ff"/>
     <use xlink:href="#mce1f9855f0" x="109.121265" y="307.584" style="fill: #0000ff; stroke: #0000ff"/>
     <use xlink:href="#mce1f9855f0" x="116.178972" y="307.584" style="fill: #0000ff; stroke: #0000ff"/>
     <use xlink:href="#mce1f9855f0" x="123.23668" y="307.584" style="fill: #0000ff; stroke: #0000ff"/>
     <use xlink:href="#mce1f9855f0" x="130.294387" y="307.584" style="fill: #0000ff; stroke: #0000ff"/>
     <use xlink:href="#mce1f9855f0" x="137.352095" y="307.584" style="fill: #0000ff; stroke: #0000ff"/>
     <use xlink:href="#mce1f9855f0" x="144.409802" y="307.584" style="fill: #0000ff; stroke: #0000ff"/>
     <use xlink:href="#mce1f9855f0" x="151.46751" y="307.584" style="fill: #0000ff; stroke: #0000ff"/>
     <use xlink:href="#mce1f9855f0" x="158.525217" y="307.584" style="fill: #0000ff; stroke: #0000ff"/>
     <use xlink:href="#mce1f9855f0" x="165.582925" y="307.584" style="fill: #0000ff; stroke: #0000ff"/>
     <use xlink:href="#mce1f9855f0" x="172.640632" y="307.312002" style="fill: #0000ff; stroke: #0000ff"/>
     <use xlink:href="#mce1f9855f0" x="179.69834" y="306.224008" style="fill: #0000ff; stroke: #0000ff"/>
     <use xlink:href="#mce1f9855f0" x="186.756047" y="303.572024" style="fill: #0000ff; stroke: #0000ff"/>
     <use xlink:href="#mce1f9855f0" x="193.813755" y="299.832046" style="fill: #0000ff; stroke: #0000ff"/>
     <use xlink:href="#mce1f9855f0" x="200.871462" y="290.5161" style="fill: #0000ff; stroke: #0000ff"/>
     <use xlink:href="#mce1f9855f0" x="207.92917" y="276.168185" style="fill: #0000ff; stroke: #0000ff"/>
     <use xlink:href="#mce1f9855f0" x="214.986877" y="261.276272" style="fill: #0000ff; stroke: #0000ff"/>
     <use xlink:href="#mce1f9855f0" x="222.044585" y="246.38436" style="fill: #0000ff; stroke: #0000ff"/>
     <use xlink:href="#mce1f9855f0" x="229.102292" y="233.736434" style="fill: #0000ff; stroke: #0000ff"/>
     <use xlink:href="#mce1f9855f0" x="236.16" y="224.488489" style="fill: #0000ff; stroke: #0000ff"/>
     <use xlink:href="#mce1f9855f0" x="243.217708" y="222.856498" style="fill: #0000ff; stroke: #0000ff"/>
     <use xlink:href="#mce1f9855f0" x="250.275415" y="228.160467" style="fill: #0000ff; stroke: #0000ff"/>
     <use xlink:href="#mce1f9855f0" x="257.333123" y="234.212432" style="fill: #0000ff; stroke: #0000ff"/>
     <use xlink:href="#mce1f9855f0" x="264.39083" y="254.272314" style="fill: #0000ff; stroke: #0000ff"/>
     <use xlink:href="#mce1f9855f0" x="271.448538" y="274.944192" style="fill: #0000ff; stroke: #0000ff"/>
     <use xlink:href="#mce1f9855f0" x="278.506245" y="290.176102" style="fill: #0000ff; stroke: #0000ff"/>
     <use xlink:href="#mce1f9855f0" x="285.563953" y="299.560047" style="fill: #0000ff; stroke: #0000ff"/>
     <use xlink:href="#mce1f9855f0" x="292.62166" y="303.708023" style="fill: #0000ff; stroke: #0000ff"/>
     <use xlink:href="#mce1f9855f0" x="299.679368" y="306.632006" style="fill: #0000ff; stroke: #0000ff"/>
     <use xlink:href="#mce1f9855f0" x="306.737075" y="307.584" style="fill: #0000ff; stroke: #0000ff"/>
     <use xlink:href="#mce1f9855f0" x="313.794783" y="307.584" style="fill: #0000ff; stroke: #0000ff"/>
     <use xlink:href="#mce1f9855f0" x="320.85249" y="307.584" style="fill: #0000ff; stroke: #0000ff"/>
     <use xlink:href="#mce1f9855f0" x="327.910198" y="307.584" style="fill: #0000ff; stroke: #0000ff"/>
     <use xlink:href="#mce1f9855f0" x="334.967905" y="307.584" style="fill: #0000ff; stroke: #0000ff"/>
     <use xlink:href="#mce1f9855f0" x="342.025613" y="307.584" style="fill: #0000ff; stroke: #0000ff"/>
     <use xlink:href="#mce1f9855f0" x="349.08332" y="307.584" style="fill: #0000ff; stroke: #0000ff"/>
     <use xlink:href="#mce1f9855f0" x="356.141028" y="307.584" style="fill: #0000ff; stroke: #0000ff"/>
     <use xlink:href="#mce1f9855f0" x="363.198735" y="307.584" style="fill: #0000ff; stroke: #0000ff"/>
     <use xlink:href="#mce1f9855f0" x="370.256443" y="307.584" style="fill: #0000ff; stroke: #0000ff"/>
     <use xlink:href="#mce1f9855f0" x="377.31415" y="307.584" style="fill: #0000ff; stroke: #0000ff"/>
     <use xlink:href="#mce1f9855f0" x="384.371858" y="307.584" style="fill: #0000ff; stroke: #0000ff"/>
     <use xlink:href="#mce1f9855f0" x="391.429565" y="307.584" style="fill: #0000ff; stroke: #0000ff"/>
     <use xlink:href="#mce1f9855f0" x="398.487273" y="307.584" style="fill: #0000ff; stroke: #0000ff"/>
    </g>
   </g>
   <g id="line2d_30">
    <path d="M 73.832727 307.584 
L 80.890435 307.584 
L 87.948142 307.584 
L 95.00585 307.584 
L 102.063557 307.584 
L 109.121265 307.584 
L 116.178972 307.584 
L 123.23668 307.584 
L 130.294387 307.584 
L 137.352095 307.584 
L 144.409802 307.584 
L 151.46751 307.584 
L 158.525217 307.584 
L 165.582925 307.584 
L 172.640632 307.584 
L 179.69834 306.768005 
L 186.756047 304.660017 
L 193.813755 300.308043 
L 200.871462 291.944092 
L 207.92917 278.68417 
L 214.986877 260.460277 
L 222.044585 240.128397 
L 229.102292 234.756428 
L 236.16 228.840463 
L 243.217708 224.692488 
L 250.275415 225.168485 
L 257.333123 241.21639 
L 264.39083 257.740293 
L 271.448538 269.980221 
L 278.506245 281.540153 
L 285.563953 297.38406 
L 292.62166 305.068015 
L 299.679368 307.176002 
L 306.737075 307.516 
L 313.794783 307.584 
L 320.85249 307.584 
L 327.910198 307.584 
L 334.967905 307.584 
L 342.025613 307.584 
L 349.08332 307.584 
L 356.141028 307.584 
L 363.198735 307.584 
L 370.256443 307.584 
L 377.31415 307.584 
L 384.371858 307.584 
L 391.429565 307.584 
L 398.487273 307.584 
" clip-path="url(#pd8f3478859)" style="fill: none; stroke: #4169e1; stroke-width: 1.5; stroke-linecap: square"/>
    <defs>
     <path id="m3d02378b3b" d="M 0 1 
C 0.265203 1 0.51958 0.894634 0.707107 0.707107 
C 0.894634 0.51958 1 0.265203 1 0 
C 1 -0.265203 0.894634 -0.51958 0.707107 -0.707107 
C 0.51958 -0.894634 0.265203 -1 0 -1 
C -0.265203 -1 -0.51958 -0.894634 -0.707107 -0.707107 
C -0.894634 -0.51958 -1 -0.265203 -1 0 
C -1 0.265203 -0.894634 0.51958 -0.707107 0.707107 
C -0.51958 0.894634 -0.265203 1 0 1 
z
" style="stroke: #4169e1"/>
    </defs>
    <g clip-path="url(#pd8f3478859)">
     <use xlink:href="#m3d02378b3b" x="73.832727" y="307.584" style="fill: #4169e1; stroke: #4169e1"/>
     <use xlink:href="#m3d02378b3b" x="80.890435" y="307.584" style="fill: #4169e1; stroke: #4169e1"/>
     <use xlink:href="#m3d02378b3b" x="87.948142" y="307.584" style="fill: #4169e1; stroke: #4169e1"/>
     <use xlink:href="#m3d02378b3b" x="95.00585" y="307.584" style="fill: #4169e1; stroke: #4169e1"/>
     <use xlink:href="#m3d02378b3b" x="102.063557" y="307.584" style="fill: #4169e1; stroke: #4169e1"/>
     <use xlink:href="#m3d02378b3b" x="109.121265" y="307.584" style="fill: #4169e1; stroke: #4169e1"/>
     <use xlink:href="#m3d02378b3b" x="116.178972" y="307.584" style="fill: #4169e1; stroke: #4169e1"/>
     <use xlink:href="#m3d02378b3b" x="123.23668" y="307.584" style="fill: #4169e1; stroke: #4169e1"/>
     <use xlink:href="#m3d02378b3b" x="130.294387" y="307.584" style="fill: #4169e1; stroke: #4169e1"/>
     <use xlink:href="#m3d02378b3b" x="137.352095" y="307.584" style="fill: #4169e1; stroke: #4169e1"/>
     <use xlink:href="#m3d02378b3b" x="144.409802" y="307.584" style="fill: #4169e1; stroke: #4169e1"/>
     <use xlink:href="#m3d02378b3b" x="151.46751" y="307.584" style="fill: #4169e1; stroke: #4169e1"/>
     <use xlink:href="#m3d02378b3b" x="158.525217" y="307.584" style="fill: #4169e1; stroke: #4169e1"/>
     <use xlink:href="#m3d02378b3b" x="165.582925" y="307.584" style="fill: #4169e1; stroke: #4169e1"/>
     <use xlink:href="#m3d02378b3b" x="172.640632" y="307.584" style="fill: #4169e1; stroke: #4169e1"/>
     <use xlink:href="#m3d02378b3b" x="179.69834" y="306.768005" style="fill: #4169e1; stroke: #4169e1"/>
     <use xlink:href="#m3d02378b3b" x="186.756047" y="304.660017" style="fill: #4169e1; stroke: #4169e1"/>
     <use xlink:href="#m3d02378b3b" x="193.813755" y="300.308043" style="fill: #4169e1; stroke: #4169e1"/>
     <use xlink:href="#m3d02378b3b" x="200.871462" y="291.944092" style="fill: #4169e1; stroke: #4169e1"/>
     <use xlink:href="#m3d02378b3b" x="207.92917" y="278.68417" style="fill: #4169e1; stroke: #4169e1"/>
     <use xlink:href="#m3d02378b3b" x="214.986877" y="260.460277" style="fill: #4169e1; stroke: #4169e1"/>
     <use xlink:href="#m3d02378b3b" x="222.044585" y="240.128397" style="fill: #4169e1; stroke: #4169e1"/>
     <use xlink:href="#m3d02378b3b" x="229.102292" y="234.756428" style="fill: #4169e1; stroke: #4169e1"/>
     <use xlink:href="#m3d02378b3b" x="236.16" y="228.840463" style="fill: #4169e1; stroke: #4169e1"/>
     <use xlink:href="#m3d02378b3b" x="243.217708" y="224.692488" style="fill: #4169e1; stroke: #4169e1"/>
     <use xlink:href="#m3d02378b3b" x="250.275415" y="225.168485" style="fill: #4169e1; stroke: #4169e1"/>
     <use xlink:href="#m3d02378b3b" x="257.333123" y="241.21639" style="fill: #4169e1; stroke: #4169e1"/>
     <use xlink:href="#m3d02378b3b" x="264.39083" y="257.740293" style="fill: #4169e1; stroke: #4169e1"/>
     <use xlink:href="#m3d02378b3b" x="271.448538" y="269.980221" style="fill: #4169e1; stroke: #4169e1"/>
     <use xlink:href="#m3d02378b3b" x="278.506245" y="281.540153" style="fill: #4169e1; stroke: #4169e1"/>
     <use xlink:href="#m3d02378b3b" x="285.563953" y="297.38406" style="fill: #4169e1; stroke: #4169e1"/>
     <use xlink:href="#m3d02378b3b" x="292.62166" y="305.068015" style="fill: #4169e1; stroke: #4169e1"/>
     <use xlink:href="#m3d02378b3b" x="299.679368" y="307.176002" style="fill: #4169e1; stroke: #4169e1"/>
     <use xlink:href="#m3d02378b3b" x="306.737075" y="307.516" style="fill: #4169e1; stroke: #4169e1"/>
     <use xlink:href="#m3d02378b3b" x="313.794783" y="307.584" style="fill: #4169e1; stroke: #4169e1"/>
     <use xlink:href="#m3d02378b3b" x="320.85249" y="307.584" style="fill: #4169e1; stroke: #4169e1"/>
     <use xlink:href="#m3d02378b3b" x="327.910198" y="307.584" style="fill: #4169e1; stroke: #4169e1"/>
     <use xlink:href="#m3d02378b3b" x="334.967905" y="307.584" style="fill: #4169e1; stroke: #4169e1"/>
     <use xlink:href="#m3d02378b3b" x="342.025613" y="307.584" style="fill: #4169e1; stroke: #4169e1"/>
     <use xlink:href="#m3d02378b3b" x="349.08332" y="307.584" style="fill: #4169e1; stroke: #4169e1"/>
     <use xlink:href="#m3d02378b3b" x="356.141028" y="307.584" style="fill: #4169e1; stroke: #4169e1"/>
     <use xlink:href="#m3d02378b3b" x="363.198735" y="307.584" style="fill: #4169e1; stroke: #4169e1"/>
     <use xlink:href="#m3d02378b3b" x="370.256443" y="307.584" style="fill: #4169e1; stroke: #4169e1"/>
     <use xlink:href="#m3d02378b3b" x="377.31415" y="307.584" style="fill: #4169e1; stroke: #4169e1"/>
     <use xlink:href="#m3d02378b3b" x="384.371858" y="307.584" style="fill: #4169e1; stroke: #4169e1"/>
     <use xlink:href="#m3d02378b3b" x="391.429565" y="307.584" style="fill: #4169e1; stroke: #4169e1"/>
     <use xlink:href="#m3d02378b3b" x="398.487273" y="307.584" style="fill: #4169e1; stroke: #4169e1"/>
    </g>
   </g>
   <g id="patch_3">
    <path d="M 57.6 307.584 
L 57.6 41.472 
" style="fill: none; stroke: #000000; stroke-width: 0.8; stroke-linejoin: miter; stroke-linecap: square"/>
   </g>
   <g id="patch_4">
    <path d="M 414.72 307.584 
L 414.72 41.472 
" style="fill: none; stroke: #000000; stroke-width: 0.8; stroke-linejoin: miter; stroke-linecap: square"/>
   </g>
   <g id="patch_5">
    <path d="M 57.6 307.584 
L 414.72 307.584 
" style="fill: none; stroke: #000000; stroke-width: 0.8; stroke-linejoin: miter; stroke-linecap: square"/>
   </g>
   <g id="patch_6">
    <path d="M 57.6 41.472 
L 414.72 41.472 
" style="fill: none; stroke: #000000; stroke-width: 0.8; stroke-linejoin: miter; stroke-linecap: square"/>
   </g>
   <g id="text_16">
    <!-- $N = 50$ Local Density Profile, $g = -2\sigma$ -->
    <g transform="translate(123.6 35.472) scale(0.12 -0.12)">
     <defs>
      <path id="DejaVuSans-Oblique-4e" d="M 1081 4666 
L 1931 4666 
L 3219 666 
L 4000 4666 
L 4616 4666 
L 3706 0 
L 2853 0 
L 1569 4025 
L 788 0 
L 172 0 
L 1081 4666 
z
" transform="scale(0.015625)"/>
      <path id="DejaVuSans-3d" d="M 678 2906 
L 4684 2906 
L 4684 2381 
L 678 2381 
L 678 2906 
z
M 678 1631 
L 4684 1631 
L 4684 1100 
L 678 1100 
L 678 1631 
z
" transform="scale(0.015625)"/>
      <path id="DejaVuSans-20" transform="scale(0.015625)"/>
      <path id="DejaVuSans-4c" d="M 628 4666 
L 1259 4666 
L 1259 531 
L 3531 531 
L 3531 0 
L 628 0 
L 628 4666 
z
" transform="scale(0.015625)"/>
      <path id="DejaVuSans-6f" d="M 1959 3097 
Q 1497 3097 1228 2736 
Q 959 2375 959 1747 
Q 959 1119 1226 758 
Q 1494 397 1959 397 
Q 2419 397 2687 759 
Q 2956 1122 2956 1747 
Q 2956 2369 2687 2733 
Q 2419 3097 1959 3097 
z
M 1959 3584 
Q 2709 3584 3137 3096 
Q 3566 2609 3566 1747 
Q 3566 888 3137 398 
Q 2709 -91 1959 -91 
Q 1206 -91 779 398 
Q 353 888 353 1747 
Q 353 2609 779 3096 
Q 1206 3584 1959 3584 
z
" transform="scale(0.015625)"/>
      <path id="DejaVuSans-63" d="M 3122 3366 
L 3122 2828 
Q 2878 2963 2633 3030 
Q 2388 3097 2138 3097 
Q 1578 3097 1268 2742 
Q 959 2388 959 1747 
Q 959 1106 1268 751 
Q 1578 397 2138 397 
Q 2388 397 2633 464 
Q 2878 531 3122 666 
L 3122 134 
Q 2881 22 2623 -34 
Q 2366 -91 2075 -91 
Q 1284 -91 818 406 
Q 353 903 353 1747 
Q 353 2603 823 3093 
Q 1294 3584 2113 3584 
Q 2378 3584 2631 3529 
Q 2884 3475 3122 3366 
z
" transform="scale(0.015625)"/>
      <path id="DejaVuSans-61" d="M 2194 1759 
Q 1497 1759 1228 1600 
Q 959 1441 959 1056 
Q 959 750 1161 570 
Q 1363 391 1709 391 
Q 2188 391 2477 730 
Q 2766 1069 2766 1631 
L 2766 1759 
L 2194 1759 
z
M 3341 1997 
L 3341 0 
L 2766 0 
L 2766 531 
Q 2569 213 2275 61 
Q 1981 -91 1556 -91 
Q 1019 -91 701 211 
Q 384 513 384 1019 
Q 384 1609 779 1909 
Q 1175 2209 1959 2209 
L 2766 2209 
L 2766 2266 
Q 2766 2663 2505 2880 
Q 2244 3097 1772 3097 
Q 1472 3097 1187 3025 
Q 903 2953 641 2809 
L 641 3341 
Q 956 3463 1253 3523 
Q 1550 3584 1831 3584 
Q 2591 3584 2966 3190 
Q 3341 2797 3341 1997 
z
" transform="scale(0.015625)"/>
      <path id="DejaVuSans-6c" d="M 603 4863 
L 1178 4863 
L 1178 0 
L 603 0 
L 603 4863 
z
" transform="scale(0.015625)"/>
      <path id="DejaVuSans-44" d="M 1259 4147 
L 1259 519 
L 2022 519 
Q 2988 519 3436 956 
Q 3884 1394 3884 2338 
Q 3884 3275 3436 3711 
Q 2988 4147 2022 4147 
L 1259 4147 
z
M 628 4666 
L 1925 4666 
Q 3281 4666 3915 4102 
Q 4550 3538 4550 2338 
Q 4550 1131 3912 565 
Q 3275 0 1925 0 
L 628 0 
L 628 4666 
z
" transform="scale(0.015625)"/>
      <path id="DejaVuSans-65" d="M 3597 1894 
L 3597 1613 
L 953 1613 
Q 991 1019 1311 708 
Q 1631 397 2203 397 
Q 2534 397 2845 478 
Q 3156 559 3463 722 
L 3463 178 
Q 3153 47 2828 -22 
Q 2503 -91 2169 -91 
Q 1331 -91 842 396 
Q 353 884 353 1716 
Q 353 2575 817 3079 
Q 1281 3584 2069 3584 
Q 2775 3584 3186 3129 
Q 3597 2675 3597 1894 
z
M 3022 2063 
Q 3016 2534 2758 2815 
Q 2500 3097 2075 3097 
Q 1594 3097 1305 2825 
Q 1016 2553 972 2059 
L 3022 2063 
z
" transform="scale(0.015625)"/>
      <path id="DejaVuSans-6e" d="M 3513 2113 
L 3513 0 
L 2938 0 
L 2938 2094 
Q 2938 2591 2744 2837 
Q 2550 3084 2163 3084 
Q 1697 3084 1428 2787 
Q 1159 2491 1159 1978 
L 1159 0 
L 581 0 
L 581 3500 
L 1159 3500 
L 1159 2956 
Q 1366 3272 1645 3428 
Q 1925 3584 2291 3584 
Q 2894 3584 3203 3211 
Q 3513 2838 3513 2113 
z
" transform="scale(0.015625)"/>
      <path id="DejaVuSans-73" d="M 2834 3397 
L 2834 2853 
Q 2591 2978 2328 3040 
Q 2066 3103 1784 3103 
Q 1356 3103 1142 2972 
Q 928 2841 928 2578 
Q 928 2378 1081 2264 
Q 1234 2150 1697 2047 
L 1894 2003 
Q 2506 1872 2764 1633 
Q 3022 1394 3022 966 
Q 3022 478 2636 193 
Q 2250 -91 1575 -91 
Q 1294 -91 989 -36 
Q 684 19 347 128 
L 347 722 
Q 666 556 975 473 
Q 1284 391 1588 391 
Q 1994 391 2212 530 
Q 2431 669 2431 922 
Q 2431 1156 2273 1281 
Q 2116 1406 1581 1522 
L 1381 1569 
Q 847 1681 609 1914 
Q 372 2147 372 2553 
Q 372 3047 722 3315 
Q 1072 3584 1716 3584 
Q 2034 3584 2315 3537 
Q 2597 3491 2834 3397 
z
" transform="scale(0.015625)"/>
      <path id="DejaVuSans-69" d="M 603 3500 
L 1178 3500 
L 1178 0 
L 603 0 
L 603 3500 
z
M 603 4863 
L 1178 4863 
L 1178 4134 
L 603 4134 
L 603 4863 
z
" transform="scale(0.015625)"/>
      <path id="DejaVuSans-74" d="M 1172 4494 
L 1172 3500 
L 2356 3500 
L 2356 3053 
L 1172 3053 
L 1172 1153 
Q 1172 725 1289 603 
Q 1406 481 1766 481 
L 2356 481 
L 2356 0 
L 1766 0 
Q 1100 0 847 248 
Q 594 497 594 1153 
L 594 3053 
L 172 3053 
L 172 3500 
L 594 3500 
L 594 4494 
L 1172 4494 
z
" transform="scale(0.015625)"/>
      <path id="DejaVuSans-79" d="M 2059 -325 
Q 1816 -950 1584 -1140 
Q 1353 -1331 966 -1331 
L 506 -1331 
L 506 -850 
L 844 -850 
Q 1081 -850 1212 -737 
Q 1344 -625 1503 -206 
L 1606 56 
L 191 3500 
L 800 3500 
L 1894 763 
L 2988 3500 
L 3597 3500 
L 2059 -325 
z
" transform="scale(0.015625)"/>
      <path id="DejaVuSans-50" d="M 1259 4147 
L 1259 2394 
L 2053 2394 
Q 2494 2394 2734 2622 
Q 2975 2850 2975 3272 
Q 2975 3691 2734 3919 
Q 2494 4147 2053 4147 
L 1259 4147 
z
M 628 4666 
L 2053 4666 
Q 2838 4666 3239 4311 
Q 3641 3956 3641 3272 
Q 3641 2581 3239 2228 
Q 2838 1875 2053 1875 
L 1259 1875 
L 1259 0 
L 628 0 
L 628 4666 
z
" transform="scale(0.015625)"/>
      <path id="DejaVuSans-72" d="M 2631 2963 
Q 2534 3019 2420 3045 
Q 2306 3072 2169 3072 
Q 1681 3072 1420 2755 
Q 1159 2438 1159 1844 
L 1159 0 
L 581 0 
L 581 3500 
L 1159 3500 
L 1159 2956 
Q 1341 3275 1631 3429 
Q 1922 3584 2338 3584 
Q 2397 3584 2469 3576 
Q 2541 3569 2628 3553 
L 2631 2963 
z
" transform="scale(0.015625)"/>
      <path id="DejaVuSans-66" d="M 2375 4863 
L 2375 4384 
L 1825 4384 
Q 1516 4384 1395 4259 
Q 1275 4134 1275 3809 
L 1275 3500 
L 2222 3500 
L 2222 3053 
L 1275 3053 
L 1275 0 
L 697 0 
L 697 3053 
L 147 3053 
L 147 3500 
L 697 3500 
L 697 3744 
Q 697 4328 969 4595 
Q 1241 4863 1831 4863 
L 2375 4863 
z
" transform="scale(0.015625)"/>
      <path id="DejaVuSans-2c" d="M 750 794 
L 1409 794 
L 1409 256 
L 897 -744 
L 494 -744 
L 750 256 
L 750 794 
z
" transform="scale(0.015625)"/>
      <path id="DejaVuSans-Oblique-67" d="M 3816 3500 
L 3219 434 
Q 3047 -456 2561 -893 
Q 2075 -1331 1253 -1331 
Q 950 -1331 690 -1286 
Q 431 -1241 206 -1147 
L 313 -588 
Q 525 -725 762 -790 
Q 1000 -856 1269 -856 
Q 1816 -856 2167 -557 
Q 2519 -259 2631 300 
L 2681 563 
Q 2441 288 2122 144 
Q 1803 0 1434 0 
Q 903 0 598 351 
Q 294 703 294 1319 
Q 294 1803 478 2267 
Q 663 2731 997 3091 
Q 1219 3328 1514 3456 
Q 1809 3584 2131 3584 
Q 2484 3584 2746 3420 
Q 3009 3256 3138 2956 
L 3238 3500 
L 3816 3500 
z
M 2950 2216 
Q 2950 2641 2750 2872 
Q 2550 3103 2181 3103 
Q 1953 3103 1747 3012 
Q 1541 2922 1394 2759 
Q 1156 2491 1023 2127 
Q 891 1763 891 1375 
Q 891 944 1092 712 
Q 1294 481 1672 481 
Q 2219 481 2584 976 
Q 2950 1472 2950 2216 
z
" transform="scale(0.015625)"/>
      <path id="DejaVuSans-Oblique-3c3" d="M 2219 3044 
Q 1744 3044 1422 2700 
Q 1081 2341 969 1747 
Q 844 1119 1044 756 
Q 1241 397 1706 397 
Q 2166 397 2503 759 
Q 2844 1122 2966 1747 
Q 3075 2319 2881 2700 
Q 2700 3044 2219 3044 
z
M 2309 3503 
L 4219 3500 
L 4106 2925 
L 3463 2925 
Q 3706 2438 3575 1747 
Q 3406 888 2884 400 
Q 2359 -91 1609 -91 
Q 856 -91 525 400 
Q 194 888 363 1747 
Q 528 2609 1050 3097 
Q 1484 3503 2309 3503 
z
" transform="scale(0.015625)"/>
     </defs>
     <use xlink:href="#DejaVuSans-Oblique-4e" transform="translate(0 0.015625)"/>
     <use xlink:href="#DejaVuSans-3d" transform="translate(94.287109 0.015625)"/>
     <use xlink:href="#DejaVuSans-35" transform="translate(197.558594 0.015625)"/>
     <use xlink:href="#DejaVuSans-30" transform="translate(261.181641 0.015625)"/>
     <use xlink:href="#DejaVuSans-20" transform="translate(324.804688 0.015625)"/>
     <use xlink:href="#DejaVuSans-4c" transform="translate(356.591797 0.015625)"/>
     <use xlink:href="#DejaVuSans-6f" transform="translate(412.304688 0.015625)"/>
     <use xlink:href="#DejaVuSans-63" transform="translate(473.486328 0.015625)"/>
     <use xlink:href="#DejaVuSans-61" transform="translate(528.466797 0.015625)"/>
     <use xlink:href="#DejaVuSans-6c" transform="translate(589.746094 0.015625)"/>
     <use xlink:href="#DejaVuSans-20" transform="translate(617.529297 0.015625)"/>
     <use xlink:href="#DejaVuSans-44" transform="translate(649.316406 0.015625)"/>
     <use xlink:href="#DejaVuSans-65" transform="translate(726.318359 0.015625)"/>
     <use xlink:href="#DejaVuSans-6e" transform="translate(787.841797 0.015625)"/>
     <use xlink:href="#DejaVuSans-73" transform="translate(851.220703 0.015625)"/>
     <use xlink:href="#DejaVuSans-69" transform="translate(903.320312 0.015625)"/>
     <use xlink:href="#DejaVuSans-74" transform="translate(931.103516 0.015625)"/>
     <use xlink:href="#DejaVuSans-79" transform="translate(970.3125 0.015625)"/>
     <use xlink:href="#DejaVuSans-20" transform="translate(1029.492188 0.015625)"/>
     <use xlink:href="#DejaVuSans-50" transform="translate(1061.279297 0.015625)"/>
     <use xlink:href="#DejaVuSans-72" transform="translate(1121.582031 0.015625)"/>
     <use xlink:href="#DejaVuSans-6f" transform="translate(1162.695312 0.015625)"/>
     <use xlink:href="#DejaVuSans-66" transform="translate(1223.876953 0.015625)"/>
     <use xlink:href="#DejaVuSans-69" transform="translate(1259.082031 0.015625)"/>
     <use xlink:href="#DejaVuSans-6c" transform="translate(1286.865234 0.015625)"/>
     <use xlink:href="#DejaVuSans-65" transform="translate(1314.648438 0.015625)"/>
     <use xlink:href="#DejaVuSans-2c" transform="translate(1376.171875 0.015625)"/>
     <use xlink:href="#DejaVuSans-20" transform="translate(1407.958984 0.015625)"/>
     <use xlink:href="#DejaVuSans-Oblique-67" transform="translate(1439.746094 0.015625)"/>
     <use xlink:href="#DejaVuSans-3d" transform="translate(1522.705078 0.015625)"/>
     <use xlink:href="#DejaVuSans-2212" transform="translate(1645.458984 0.015625)"/>
     <use xlink:href="#DejaVuSans-32" transform="translate(1748.730469 0.015625)"/>
     <use xlink:href="#DejaVuSans-Oblique-3c3" transform="translate(1812.353516 0.015625)"/>
    </g>
   </g>
   <g id="legend_1">
    <g id="patch_7">
     <path d="M 232.02 108.272 
L 407.72 108.272 
Q 409.72 108.272 409.72 106.272 
L 409.72 48.472 
Q 409.72 46.472 407.72 46.472 
L 232.02 46.472 
Q 230.02 46.472 230.02 48.472 
L 230.02 106.272 
Q 230.02 108.272 232.02 108.272 
z
" style="fill: #ffffff; opacity: 0.8; stroke: #cccccc; stroke-linejoin: miter"/>
    </g>
    <g id="line2d_31">
     <path d="M 234.02 54.572 
L 244.02 54.572 
L 254.02 54.572 
" style="fill: none; stroke: #8b0000; stroke-width: 1.5; stroke-linecap: square"/>
     <g>
      <use xlink:href="#m6996991add" x="244.02" y="54.572" style="fill: #8b0000; stroke: #8b0000"/>
     </g>
    </g>
    <g id="text_17">
     <!-- Neural Network, $g = -0.01$ -->
     <g transform="translate(262.02 58.072) scale(0.1 -0.1)">
      <defs>
       <path id="DejaVuSans-4e" d="M 628 4666 
L 1478 4666 
L 3547 763 
L 3547 4666 
L 4159 4666 
L 4159 0 
L 3309 0 
L 1241 3903 
L 1241 0 
L 628 0 
L 628 4666 
z
" transform="scale(0.015625)"/>
       <path id="DejaVuSans-75" d="M 544 1381 
L 544 3500 
L 1119 3500 
L 1119 1403 
Q 1119 906 1312 657 
Q 1506 409 1894 409 
Q 2359 409 2629 706 
Q 2900 1003 2900 1516 
L 2900 3500 
L 3475 3500 
L 3475 0 
L 2900 0 
L 2900 538 
Q 2691 219 2414 64 
Q 2138 -91 1772 -91 
Q 1169 -91 856 284 
Q 544 659 544 1381 
z
M 1991 3584 
L 1991 3584 
z
" transform="scale(0.015625)"/>
       <path id="DejaVuSans-77" d="M 269 3500 
L 844 3500 
L 1563 769 
L 2278 3500 
L 2956 3500 
L 3675 769 
L 4391 3500 
L 4966 3500 
L 4050 0 
L 3372 0 
L 2619 2869 
L 1863 0 
L 1184 0 
L 269 3500 
z
" transform="scale(0.015625)"/>
       <path id="DejaVuSans-6b" d="M 581 4863 
L 1159 4863 
L 1159 1991 
L 2875 3500 
L 3609 3500 
L 1753 1863 
L 3688 0 
L 2938 0 
L 1159 1709 
L 1159 0 
L 581 0 
L 581 4863 
z
" transform="scale(0.015625)"/>
      </defs>
      <use xlink:href="#DejaVuSans-4e" transform="translate(0 0.015625)"/>
      <use xlink:href="#DejaVuSans-65" transform="translate(74.804688 0.015625)"/>
      <use xlink:href="#DejaVuSans-75" transform="translate(136.328125 0.015625)"/>
      <use xlink:href="#DejaVuSans-72" transform="translate(199.707031 0.015625)"/>
      <use xlink:href="#DejaVuSans-61" transform="translate(240.820312 0.015625)"/>
      <use xlink:href="#DejaVuSans-6c" transform="translate(302.099609 0.015625)"/>
      <use xlink:href="#DejaVuSans-20" transform="translate(329.882812 0.015625)"/>
      <use xlink:href="#DejaVuSans-4e" transform="translate(361.669922 0.015625)"/>
      <use xlink:href="#DejaVuSans-65" transform="translate(436.474609 0.015625)"/>
      <use xlink:href="#DejaVuSans-74" transform="translate(497.998047 0.015625)"/>
      <use xlink:href="#DejaVuSans-77" transform="translate(537.207031 0.015625)"/>
      <use xlink:href="#DejaVuSans-6f" transform="translate(618.994141 0.015625)"/>
      <use xlink:href="#DejaVuSans-72" transform="translate(680.175781 0.015625)"/>
      <use xlink:href="#DejaVuSans-6b" transform="translate(721.289062 0.015625)"/>
      <use xlink:href="#DejaVuSans-2c" transform="translate(779.199219 0.015625)"/>
      <use xlink:href="#DejaVuSans-20" transform="translate(810.986328 0.015625)"/>
      <use xlink:href="#DejaVuSans-Oblique-67" transform="translate(842.773438 0.015625)"/>
      <use xlink:href="#DejaVuSans-3d" transform="translate(925.732422 0.015625)"/>
      <use xlink:href="#DejaVuSans-2212" transform="translate(1048.486328 0.015625)"/>
      <use xlink:href="#DejaVuSans-30" transform="translate(1151.757812 0.015625)"/>
      <use xlink:href="#DejaVuSans-2e" transform="translate(1215.380859 0.015625)"/>
      <use xlink:href="#DejaVuSans-30" transform="translate(1247.167969 0.015625)"/>
      <use xlink:href="#DejaVuSans-31" transform="translate(1310.791016 0.015625)"/>
     </g>
    </g>
    <g id="line2d_32">
     <path d="M 234.02 69.272 
L 244.02 69.272 
L 254.02 69.272 
" style="fill: none; stroke: #ff0000; stroke-width: 1.5; stroke-linecap: square"/>
     <g>
      <use xlink:href="#m2e6fd03969" x="244.02" y="69.272" style="fill: #ff0000; stroke: #ff0000"/>
     </g>
    </g>
    <g id="text_18">
     <!-- Analytic Solution, $g = -0.01$ -->
     <g transform="translate(262.02 72.772) scale(0.1 -0.1)">
      <defs>
       <path id="DejaVuSans-41" d="M 2188 4044 
L 1331 1722 
L 3047 1722 
L 2188 4044 
z
M 1831 4666 
L 2547 4666 
L 4325 0 
L 3669 0 
L 3244 1197 
L 1141 1197 
L 716 0 
L 50 0 
L 1831 4666 
z
" transform="scale(0.015625)"/>
       <path id="DejaVuSans-53" d="M 3425 4513 
L 3425 3897 
Q 3066 4069 2747 4153 
Q 2428 4238 2131 4238 
Q 1616 4238 1336 4038 
Q 1056 3838 1056 3469 
Q 1056 3159 1242 3001 
Q 1428 2844 1947 2747 
L 2328 2669 
Q 3034 2534 3370 2195 
Q 3706 1856 3706 1288 
Q 3706 609 3251 259 
Q 2797 -91 1919 -91 
Q 1588 -91 1214 -16 
Q 841 59 441 206 
L 441 856 
Q 825 641 1194 531 
Q 1563 422 1919 422 
Q 2459 422 2753 634 
Q 3047 847 3047 1241 
Q 3047 1584 2836 1778 
Q 2625 1972 2144 2069 
L 1759 2144 
Q 1053 2284 737 2584 
Q 422 2884 422 3419 
Q 422 4038 858 4394 
Q 1294 4750 2059 4750 
Q 2388 4750 2728 4690 
Q 3069 4631 3425 4513 
z
" transform="scale(0.015625)"/>
      </defs>
      <use xlink:href="#DejaVuSans-41" transform="translate(0 0.015625)"/>
      <use xlink:href="#DejaVuSans-6e" transform="translate(68.408203 0.015625)"/>
      <use xlink:href="#DejaVuSans-61" transform="translate(131.787109 0.015625)"/>
      <use xlink:href="#DejaVuSans-6c" transform="translate(193.066406 0.015625)"/>
      <use xlink:href="#DejaVuSans-79" transform="translate(220.849609 0.015625)"/>
      <use xlink:href="#DejaVuSans-74" transform="translate(280.029297 0.015625)"/>
      <use xlink:href="#DejaVuSans-69" transform="translate(319.238281 0.015625)"/>
      <use xlink:href="#DejaVuSans-63" transform="translate(347.021484 0.015625)"/>
      <use xlink:href="#DejaVuSans-20" transform="translate(402.001953 0.015625)"/>
      <use xlink:href="#DejaVuSans-53" transform="translate(433.789062 0.015625)"/>
      <use xlink:href="#DejaVuSans-6f" transform="translate(497.265625 0.015625)"/>
      <use xlink:href="#DejaVuSans-6c" transform="translate(558.447266 0.015625)"/>
      <use xlink:href="#DejaVuSans-75" transform="translate(586.230469 0.015625)"/>
      <use xlink:href="#DejaVuSans-74" transform="translate(649.609375 0.015625)"/>
      <use xlink:href="#DejaVuSans-69" transform="translate(688.818359 0.015625)"/>
      <use xlink:href="#DejaVuSans-6f" transform="translate(716.601562 0.015625)"/>
      <use xlink:href="#DejaVuSans-6e" transform="translate(777.783203 0.015625)"/>
      <use xlink:href="#DejaVuSans-2c" transform="translate(841.162109 0.015625)"/>
      <use xlink:href="#DejaVuSans-20" transform="translate(872.949219 0.015625)"/>
      <use xlink:href="#DejaVuSans-Oblique-67" transform="translate(904.736328 0.015625)"/>
      <use xlink:href="#DejaVuSans-3d" transform="translate(987.695312 0.015625)"/>
      <use xlink:href="#DejaVuSans-2212" transform="translate(1110.449219 0.015625)"/>
      <use xlink:href="#DejaVuSans-30" transform="translate(1213.720703 0.015625)"/>
      <use xlink:href="#DejaVuSans-2e" transform="translate(1277.34375 0.015625)"/>
      <use xlink:href="#DejaVuSans-30" transform="translate(1309.130859 0.015625)"/>
      <use xlink:href="#DejaVuSans-31" transform="translate(1372.753906 0.015625)"/>
     </g>
    </g>
    <g id="line2d_33">
     <path d="M 234.02 83.972 
L 244.02 83.972 
L 254.02 83.972 
" style="fill: none; stroke: #0000ff; stroke-width: 1.5; stroke-linecap: square"/>
     <g>
      <use xlink:href="#mce1f9855f0" x="244.02" y="83.972" style="fill: #0000ff; stroke: #0000ff"/>
     </g>
    </g>
    <g id="text_19">
     <!-- Neural Network, $g = 0.05$ -->
     <g transform="translate(262.02 87.472) scale(0.1 -0.1)">
      <use xlink:href="#DejaVuSans-4e" transform="translate(0 0.015625)"/>
      <use xlink:href="#DejaVuSans-65" transform="translate(74.804688 0.015625)"/>
      <use xlink:href="#DejaVuSans-75" transform="translate(136.328125 0.015625)"/>
      <use xlink:href="#DejaVuSans-72" transform="translate(199.707031 0.015625)"/>
      <use xlink:href="#DejaVuSans-61" transform="translate(240.820312 0.015625)"/>
      <use xlink:href="#DejaVuSans-6c" transform="translate(302.099609 0.015625)"/>
      <use xlink:href="#DejaVuSans-20" transform="translate(329.882812 0.015625)"/>
      <use xlink:href="#DejaVuSans-4e" transform="translate(361.669922 0.015625)"/>
      <use xlink:href="#DejaVuSans-65" transform="translate(436.474609 0.015625)"/>
      <use xlink:href="#DejaVuSans-74" transform="translate(497.998047 0.015625)"/>
      <use xlink:href="#DejaVuSans-77" transform="translate(537.207031 0.015625)"/>
      <use xlink:href="#DejaVuSans-6f" transform="translate(618.994141 0.015625)"/>
      <use xlink:href="#DejaVuSans-72" transform="translate(680.175781 0.015625)"/>
      <use xlink:href="#DejaVuSans-6b" transform="translate(721.289062 0.015625)"/>
      <use xlink:href="#DejaVuSans-2c" transform="translate(779.199219 0.015625)"/>
      <use xlink:href="#DejaVuSans-20" transform="translate(810.986328 0.015625)"/>
      <use xlink:href="#DejaVuSans-Oblique-67" transform="translate(842.773438 0.015625)"/>
      <use xlink:href="#DejaVuSans-3d" transform="translate(925.732422 0.015625)"/>
      <use xlink:href="#DejaVuSans-30" transform="translate(1029.003906 0.015625)"/>
      <use xlink:href="#DejaVuSans-2e" transform="translate(1092.626953 0.015625)"/>
      <use xlink:href="#DejaVuSans-30" transform="translate(1124.414062 0.015625)"/>
      <use xlink:href="#DejaVuSans-35" transform="translate(1188.037109 0.015625)"/>
     </g>
    </g>
    <g id="line2d_34">
     <path d="M 234.02 98.672 
L 244.02 98.672 
L 254.02 98.672 
" style="fill: none; stroke: #4169e1; stroke-width: 1.5; stroke-linecap: square"/>
     <g>
      <use xlink:href="#m3d02378b3b" x="244.02" y="98.672" style="fill: #4169e1; stroke: #4169e1"/>
     </g>
    </g>
    <g id="text_20">
     <!-- Analytic Solution, $g = 0.05$ -->
     <g transform="translate(262.02 102.172) scale(0.1 -0.1)">
      <use xlink:href="#DejaVuSans-41" transform="translate(0 0.015625)"/>
      <use xlink:href="#DejaVuSans-6e" transform="translate(68.408203 0.015625)"/>
      <use xlink:href="#DejaVuSans-61" transform="translate(131.787109 0.015625)"/>
      <use xlink:href="#DejaVuSans-6c" transform="translate(193.066406 0.015625)"/>
      <use xlink:href="#DejaVuSans-79" transform="translate(220.849609 0.015625)"/>
      <use xlink:href="#DejaVuSans-74" transform="translate(280.029297 0.015625)"/>
      <use xlink:href="#DejaVuSans-69" transform="translate(319.238281 0.015625)"/>
      <use xlink:href="#DejaVuSans-63" transform="translate(347.021484 0.015625)"/>
      <use xlink:href="#DejaVuSans-20" transform="translate(402.001953 0.015625)"/>
      <use xlink:href="#DejaVuSans-53" transform="translate(433.789062 0.015625)"/>
      <use xlink:href="#DejaVuSans-6f" transform="translate(497.265625 0.015625)"/>
      <use xlink:href="#DejaVuSans-6c" transform="translate(558.447266 0.015625)"/>
      <use xlink:href="#DejaVuSans-75" transform="translate(586.230469 0.015625)"/>
      <use xlink:href="#DejaVuSans-74" transform="translate(649.609375 0.015625)"/>
      <use xlink:href="#DejaVuSans-69" transform="translate(688.818359 0.015625)"/>
      <use xlink:href="#DejaVuSans-6f" transform="translate(716.601562 0.015625)"/>
      <use xlink:href="#DejaVuSans-6e" transform="translate(777.783203 0.015625)"/>
      <use xlink:href="#DejaVuSans-2c" transform="translate(841.162109 0.015625)"/>
      <use xlink:href="#DejaVuSans-20" transform="translate(872.949219 0.015625)"/>
      <use xlink:href="#DejaVuSans-Oblique-67" transform="translate(904.736328 0.015625)"/>
      <use xlink:href="#DejaVuSans-3d" transform="translate(987.695312 0.015625)"/>
      <use xlink:href="#DejaVuSans-30" transform="translate(1090.966797 0.015625)"/>
      <use xlink:href="#DejaVuSans-2e" transform="translate(1154.589844 0.015625)"/>
      <use xlink:href="#DejaVuSans-30" transform="translate(1186.376953 0.015625)"/>
      <use xlink:href="#DejaVuSans-35" transform="translate(1250 0.015625)"/>
     </g>
    </g>
   </g>
  </g>
 </g>
 <defs>
  <clipPath id="pd8f3478859">
   <rect x="57.6" y="41.472" width="357.12" height="266.112"/>
  </clipPath>
 </defs>
</svg>
